M48
;Layer_Color=9474304
;FILE_FORMAT=4:4
METRIC,TZ
;TYPE=PLATED
T02F00S00C0.6000
T03F00S00C0.7000
T04F00S00C0.7874
T05F00S00C0.8000
T06F00S00C0.8128
T07F00S00C0.8890
T08F00S00C0.9906
T09F00S00C1.0200
T10F00S00C1.1000
%
T02
X170280Y326850
X182980
X270356Y344830
Y242830
T03
X771244Y39838
Y167838
X768704Y350472
X794104
X596492Y337010
X571092
X533246Y337518
X507846
X328014Y358592
Y230592
X237082Y241498
X185012Y242006
X126084Y243276
X61568Y240482
Y112482
X126084Y115276
X185012Y114006
X237082Y113498
T04
X818996Y67770
X866748
Y136604
X818996
X729750Y136300
X704350
X678950
X653550
X628150
X602750
X577350
X551950
X526550
X501150
X475750
X450350
X424950
X399550
Y212500
X424950
X450350
X475750
X501150
X526550
X551950
X577350
X602750
X628150
X653550
X678950
X704350
X729750
T05
X523732Y271732
X572732
T06
X76808Y43386
X102208
X152500Y42116
X177900
X228192
X253592
X320648Y133048
X346048
T07
X163930Y385270
Y461470
T08
X48360Y455120
X73760
X99160
T09
X823286Y201120
Y226520
Y251920
Y277320
Y302720
Y328120
X604874Y38306
X579474
X554074
X528674
X503274
X477874
X395070Y472900
X369670
X420470
X445870
X471270
X496670
X632560
X657960
X683360
X708760
X734160
X759560
T10
X324458Y32464
X349858
X375258
X282548Y413210
X257148
X231748
X231240Y475440
X256640
X282040
M30
