G04*
G04 #@! TF.GenerationSoftware,Altium Limited,Altium Designer,24.1.2 (44)*
G04*
G04 Layer_Color=16711935*
%FSLAX44Y44*%
%MOMM*%
G71*
G04*
G04 #@! TF.SameCoordinates,1A3C5EF7-D8C1-486F-82F1-317441259842*
G04*
G04*
G04 #@! TF.FilePolarity,Negative*
G04*
G01*
G75*
%ADD20R,1.7272X2.4892*%
%ADD21O,1.7272X2.4892*%
%ADD22C,2.1082*%
%ADD23R,1.2032X1.7032*%
%ADD24O,1.2032X1.7032*%
%ADD25C,1.7032*%
%ADD26C,2.2352*%
%ADD27R,2.2352X2.2352*%
%ADD28O,2.2352X2.7432*%
%ADD29R,2.2352X2.7432*%
%ADD30O,2.5532X4.9532*%
%ADD31O,4.9532X2.5532*%
%ADD32C,1.7232*%
%ADD33R,1.7232X1.7232*%
%ADD34R,1.7232X1.7232*%
%ADD35O,1.8542X2.7432*%
%ADD36R,1.8542X2.7432*%
%ADD37C,1.6032*%
%ADD38R,1.8032X1.8032*%
%ADD39C,1.8032*%
D20*
X729750Y212500D02*
D03*
D21*
X704350D02*
D03*
X678950D02*
D03*
X653550D02*
D03*
X628150D02*
D03*
X602750D02*
D03*
X577350D02*
D03*
X551950D02*
D03*
X526550D02*
D03*
X501150D02*
D03*
X475750D02*
D03*
X450350D02*
D03*
X424950D02*
D03*
X399550D02*
D03*
X729750Y136300D02*
D03*
X704350D02*
D03*
X678950D02*
D03*
X653550D02*
D03*
X628150D02*
D03*
X602750D02*
D03*
X577350D02*
D03*
X551950D02*
D03*
X526550D02*
D03*
X501150D02*
D03*
X475750D02*
D03*
X450350D02*
D03*
X424950D02*
D03*
X399550D02*
D03*
D22*
X866748Y67770D02*
D03*
X818996Y136604D02*
D03*
X866748D02*
D03*
X818996Y67770D02*
D03*
X572732Y271732D02*
D03*
X523732D02*
D03*
D23*
X182980Y326850D02*
D03*
D24*
X170280D02*
D03*
D25*
X768704Y350472D02*
D03*
X794104D02*
D03*
X771244Y167838D02*
D03*
Y39838D02*
D03*
X596492Y337010D02*
D03*
X571092D02*
D03*
X507846Y337518D02*
D03*
X533246D02*
D03*
X328014Y358592D02*
D03*
Y230592D02*
D03*
X185012Y114006D02*
D03*
Y242006D02*
D03*
X237082Y241498D02*
D03*
Y113498D02*
D03*
X61568Y240482D02*
D03*
Y112482D02*
D03*
X126084Y243276D02*
D03*
Y115276D02*
D03*
D26*
X163930Y385270D02*
D03*
D27*
Y461470D02*
D03*
D28*
X99160Y455120D02*
D03*
X73760D02*
D03*
D29*
X48360D02*
D03*
D30*
X119234Y354250D02*
D03*
X56750D02*
D03*
D31*
X89262Y306244D02*
D03*
D32*
X823286Y201120D02*
D03*
Y226520D02*
D03*
Y251920D02*
D03*
Y277320D02*
D03*
Y302720D02*
D03*
X395070Y472900D02*
D03*
X420470D02*
D03*
X445870D02*
D03*
X471270D02*
D03*
X496670D02*
D03*
X579474Y38306D02*
D03*
X554074D02*
D03*
X528674D02*
D03*
X503274D02*
D03*
X477874D02*
D03*
X759560Y472900D02*
D03*
X734160D02*
D03*
X708760D02*
D03*
X683360D02*
D03*
X657960D02*
D03*
D33*
X823286Y328120D02*
D03*
D34*
X369670Y472900D02*
D03*
X604874Y38306D02*
D03*
X632560Y472900D02*
D03*
D35*
X102208Y43386D02*
D03*
X177900Y42116D02*
D03*
X253592D02*
D03*
X320648Y133048D02*
D03*
D36*
X76808Y43386D02*
D03*
X152500Y42116D02*
D03*
X228192D02*
D03*
X346048Y133048D02*
D03*
D37*
X270356Y242830D02*
D03*
Y344830D02*
D03*
D38*
X282040Y475440D02*
D03*
X282548Y413210D02*
D03*
X375258Y32464D02*
D03*
D39*
X256640Y475440D02*
D03*
X231240D02*
D03*
X257148Y413210D02*
D03*
X231748D02*
D03*
X349858Y32464D02*
D03*
X324458D02*
D03*
M02*
